<svg width="15" height="16" viewBox="0 0 15 16" fill="none" xmlns="http://www.w3.org/2000/svg">
<path d="M13.125 13.625L10.4106 10.9106M10.4106 10.9106C10.8749 10.4463 11.2432 9.89512 11.4945 9.28847C11.7458 8.68183 11.8751 8.03163 11.8751 7.37501C11.8751 6.71838 11.7458 6.06818 11.4945 5.46154C11.2432 4.8549 10.8749 4.30369 10.4106 3.83938C9.94633 3.37508 9.39512 3.00677 8.78847 2.75549C8.18183 2.50421 7.53163 2.37488 6.87501 2.37488C6.21838 2.37488 5.56818 2.50421 4.96154 2.75549C4.3549 3.00677 3.80369 3.37508 3.33938 3.83938C2.40168 4.77709 1.87488 6.04889 1.87488 7.37501C1.87488 8.70112 2.40168 9.97293 3.33938 10.9106C4.27709 11.8483 5.54889 12.3751 6.87501 12.3751C8.20112 12.3751 9.47293 11.8483 10.4106 10.9106Z" stroke="#822433" stroke-width="2" stroke-linecap="round" stroke-linejoin="round"/>
</svg>
